<svg data-v-423bf9ae="" xmlns="http://www.w3.org/2000/svg" viewBox="0 0 470 90" class="iconLeft"><!----><!----><!----><g data-v-423bf9ae="" id="c9df8ed5-adcd-41fe-8102-f8597c31e380" fill="black" transform="matrix(5.802707844736658,0,0,5.802707844736658,115.85934798014173,-5.483559241159334)"><path d="M3.16 7.49L3.16 7.49Q2.53 7.49 2.18 7.74L2.18 7.74L2.18 7.74Q1.83 7.98 1.83 8.41L1.83 8.41L1.83 8.41Q1.83 8.82 2.03 9.04L2.03 9.04L2.03 9.04Q2.23 9.25 2.73 9.44L2.73 9.44L3.92 9.84L3.92 9.84Q4.77 10.14 5.10 10.56L5.10 10.56L5.10 10.56Q5.43 10.98 5.43 11.72L5.43 11.72L5.43 11.72Q5.43 12.71 4.74 13.29L4.74 13.29L4.74 13.29Q4.05 13.86 2.74 13.86L2.74 13.86L2.74 13.86Q2.24 13.86 1.65 13.76L1.65 13.76L1.65 13.76Q1.05 13.66 0.59 13.50L0.59 13.50L0.78 11.77L1.33 11.77L1.62 12.94L1.62 12.94Q2.18 13.10 2.77 13.10L2.77 13.10L2.77 13.10Q4.21 13.10 4.21 11.97L4.21 11.97L4.21 11.97Q4.21 11.63 3.99 11.42L3.99 11.42L3.99 11.42Q3.77 11.20 3.16 10.99L3.16 10.99L2.09 10.63L2.09 10.63Q1.34 10.35 1.01 9.91L1.01 9.91L1.01 9.91Q0.67 9.48 0.67 8.76L0.67 8.76L0.67 8.76Q0.67 7.78 1.30 7.25L1.30 7.25L1.30 7.25Q1.93 6.71 3.19 6.71L3.19 6.71L3.19 6.71Q4.19 6.71 5.17 7.14L5.17 7.14L4.96 8.72L4.42 8.72L4.13 7.70L4.13 7.70Q3.95 7.62 3.68 7.55L3.68 7.55L3.68 7.55Q3.40 7.49 3.16 7.49L3.16 7.49ZM9.25 7.56L9.25 7.56Q8.60 7.56 7.98 7.76L7.98 7.76L7.66 8.95L7.11 8.95L6.87 7.22L6.87 7.22Q8.27 6.71 9.58 6.71L9.58 6.71L9.58 6.71Q10.64 6.71 11.20 7.06L11.20 7.06L11.20 7.06Q11.76 7.42 11.76 8.30L11.76 8.30L11.76 12.80L12.96 13.09L12.96 13.55L12.96 13.55Q12.18 13.78 11.47 13.78L11.47 13.78L11.47 13.78Q11.07 13.78 10.78 13.58L10.78 13.58L10.78 13.58Q10.49 13.38 10.40 13.02L10.40 13.02L10.40 13.02Q9.83 13.44 9.27 13.66L9.27 13.66L9.27 13.66Q8.71 13.87 8.09 13.87L8.09 13.87L8.09 13.87Q7.36 13.87 6.95 13.37L6.95 13.37L6.95 13.37Q6.54 12.87 6.54 12.15L6.54 12.15L6.54 12.15Q6.54 11.48 6.92 10.92L6.92 10.92L6.92 10.92Q7.31 10.36 8.32 10.18L8.32 10.18L10.37 9.80L10.37 8.68L10.37 8.68Q10.37 8.11 10.13 7.83L10.13 7.83L10.13 7.83Q9.88 7.56 9.25 7.56L9.25 7.56ZM9.10 10.70L9.10 10.70Q7.95 10.92 7.95 11.94L7.95 11.94L7.95 11.94Q7.95 12.92 8.89 12.92L8.89 12.92L8.89 12.92Q9.49 12.92 10.37 12.45L10.37 12.45L10.37 10.47L9.10 10.70ZM17.19 13.72L13.38 13.72L13.38 13.19L14.60 12.91L14.60 4.63L13.38 4.49L13.38 4.06L15.53 3.53L15.99 3.53L15.99 12.91L17.19 13.19L17.19 13.72ZM20.68 7.56L20.68 7.56Q20.02 7.56 19.40 7.76L19.40 7.76L19.08 8.95L18.54 8.95L18.30 7.22L18.30 7.22Q19.70 6.71 21 6.71L21 6.71L21 6.71Q22.06 6.71 22.62 7.06L22.62 7.06L22.62 7.06Q23.18 7.42 23.18 8.30L23.18 8.30L23.18 12.80L24.39 13.09L24.39 13.55L24.39 13.55Q23.60 13.78 22.89 13.78L22.89 13.78L22.89 13.78Q22.50 13.78 22.20 13.58L22.20 13.58L22.20 13.58Q21.91 13.38 21.83 13.02L21.83 13.02L21.83 13.02Q21.25 13.44 20.69 13.66L20.69 13.66L20.69 13.66Q20.13 13.87 19.52 13.87L19.52 13.87L19.52 13.87Q18.79 13.87 18.38 13.37L18.38 13.37L18.38 13.37Q17.96 12.87 17.96 12.15L17.96 12.15L17.96 12.15Q17.96 11.48 18.35 10.92L18.35 10.92L18.35 10.92Q18.73 10.36 19.74 10.18L19.74 10.18L21.80 9.80L21.80 8.68L21.80 8.68Q21.80 8.11 21.55 7.83L21.55 7.83L21.55 7.83Q21.31 7.56 20.68 7.56L20.68 7.56ZM20.52 10.70L20.52 10.70Q19.38 10.92 19.38 11.94L19.38 11.94L19.38 11.94Q19.38 12.92 20.31 12.92L20.31 12.92L20.31 12.92Q20.92 12.92 21.80 12.45L21.80 12.45L21.80 10.47L20.52 10.70ZM29.85 13.06L29.85 13.06Q29.32 13.45 28.76 13.66L28.76 13.66L28.76 13.66Q28.20 13.86 27.52 13.86L27.52 13.86L27.52 13.86Q26.74 13.86 26.19 13.38L26.19 13.38L26.19 13.38Q25.63 12.89 25.36 12.09L25.36 12.09L25.36 12.09Q25.09 11.28 25.09 10.32L25.09 10.32L25.09 10.32Q25.09 8.62 25.91 7.67L25.91 7.67L25.91 7.67Q26.74 6.71 28.21 6.71L28.21 6.71L28.21 6.71Q28.57 6.71 28.93 6.78L28.93 6.78L28.93 6.78Q29.29 6.85 29.54 6.93L29.54 6.93L29.54 6.93Q29.79 7.01 29.81 7.04L29.81 7.04L29.81 4.63L28.60 4.49L28.60 4.06L30.74 3.53L31.19 3.53L31.19 12.80L32.40 13.09L32.40 13.55L32.40 13.55Q31.63 13.78 30.88 13.78L30.88 13.78L30.88 13.78Q30.53 13.78 30.23 13.58L30.23 13.58L30.23 13.58Q29.92 13.38 29.85 13.06L29.85 13.06ZM28.18 12.95L28.18 12.95Q28.63 12.95 29.07 12.78L29.07 12.78L29.07 12.78Q29.51 12.61 29.81 12.42L29.81 12.42L29.81 7.87L29.81 7.87Q29.18 7.46 28.38 7.46L28.38 7.46L28.38 7.46Q27.51 7.46 27.05 8.21L27.05 8.21L27.05 8.21Q26.60 8.96 26.60 10.28L26.60 10.28L26.60 10.28Q26.60 11.51 26.99 12.23L26.99 12.23L26.99 12.23Q27.38 12.95 28.18 12.95L28.18 12.95ZM39.06 6.71L39.06 6.71Q40.77 6.71 41.57 7.70L41.57 7.70L41.57 7.70Q42.38 8.69 42.38 10.32L42.38 10.32L42.38 10.32Q42.38 11.89 41.57 12.87L41.57 12.87L41.57 12.87Q40.75 13.86 39.06 13.86L39.06 13.86L39.06 13.86Q37.38 13.86 36.56 12.87L36.56 12.87L36.56 12.87Q35.74 11.89 35.74 10.32L35.74 10.32L35.74 10.32Q35.74 8.71 36.55 7.71L36.55 7.71L36.55 7.71Q37.37 6.71 39.06 6.71L39.06 6.71ZM40.87 10.28L40.87 10.28Q40.87 8.93 40.46 8.20L40.46 8.20L40.46 8.20Q40.05 7.46 39.02 7.46L39.02 7.46L39.02 7.46Q38.04 7.46 37.65 8.20L37.65 8.20L37.65 8.20Q37.25 8.95 37.25 10.28L37.25 10.28L37.25 10.28Q37.25 11.62 37.66 12.36L37.66 12.36L37.66 12.36Q38.07 13.10 39.10 13.10L39.10 13.10L39.10 13.10Q40.11 13.10 40.49 12.37L40.49 12.37L40.49 12.37Q40.87 11.63 40.87 10.28L40.87 10.28ZM47.18 7.70L47.18 7.70Q46.47 7.70 45.85 7.95L45.85 7.95L45.85 12.91L47.45 13.22L47.45 13.72L43.26 13.72L43.26 13.23L44.46 12.89L44.46 7.83L43.26 7.67L43.26 7.24L45.29 6.71L45.82 6.71L45.82 7.35L45.82 7.35Q46.30 7.04 46.88 6.86L46.88 6.86L46.88 6.86Q47.46 6.68 47.96 6.68L47.96 6.68L47.96 6.68Q48.23 6.68 48.34 6.69L48.34 6.69L48.10 8.86L47.47 8.86L47.18 7.70ZM48.96 13.72L48.96 13.26L50.16 12.91L50.16 7.81L48.96 7.67L48.96 7.22L51.10 6.71L51.55 6.71L51.55 7.27L51.55 7.27Q52.02 7.06 52.68 6.88L52.68 6.88L52.68 6.88Q53.34 6.71 53.91 6.71L53.91 6.71L53.91 6.71Q54.38 6.71 54.77 6.85L54.77 6.85L54.77 6.85Q55.17 7.00 55.40 7.29L55.40 7.29L55.40 7.29Q56.94 6.71 58.02 6.71L58.02 6.71L58.02 6.71Q58.86 6.71 59.32 7.08L59.32 7.08L59.32 7.08Q59.78 7.45 59.78 8.22L59.78 8.22L59.78 12.91L61.01 13.26L61.01 13.72L57.41 13.72L57.41 13.26L58.39 12.91L58.39 8.53L58.39 8.53Q58.39 8.18 58.29 7.99L58.29 7.99L58.29 7.99Q58.18 7.80 57.92 7.72L57.92 7.72L57.92 7.72Q57.65 7.64 57.13 7.64L57.13 7.64L57.13 7.64Q56.28 7.64 55.62 7.85L55.62 7.85L55.62 7.85Q55.66 7.99 55.66 8.25L55.66 8.25L55.66 12.91L56.64 13.26L56.64 13.72L53.30 13.72L53.30 13.26L54.28 12.91L54.28 8.53L54.28 8.53Q54.28 8.16 54.17 7.97L54.17 7.97L54.17 7.97Q54.07 7.78 53.80 7.71L53.80 7.71L53.80 7.71Q53.52 7.64 52.98 7.64L52.98 7.64L52.98 7.64Q52.61 7.64 52.22 7.70L52.22 7.70L52.22 7.70Q51.83 7.76 51.55 7.85L51.55 7.85L51.55 12.91L52.51 13.26L52.51 13.72L48.96 13.72Z"></path></g><!----><g data-v-423bf9ae="" id="5446f94a-436c-4bec-bcf0-9dd07ccf8c64" transform="matrix(3.1025924503236535,0,0,3.1025924503236535,0.3585207948215441,-8.290956827928717)" stroke="none" fill="black"><path d="M16 26.219l7.496-12.954H8.504zM7.496 19.046L0 32h14.992zM17.008 32H32l-7.496-12.954zM3.587 2.992L0 9.191h7.174zM8.275 9.191h7.174l-3.587-6.199zM20.138 2.992l-3.587 6.199h7.174zM24.826 9.191H32l-3.587-6.199z"></path></g><!----></svg>